<svg width="53" height="53" viewBox="0 0 53 53" fill="none" xmlns="http://www.w3.org/2000/svg">
<g clip-path="url(#clip0_189_2896)">
<path d="M42.8491 37.0962C42.4068 34.9766 42.7028 32.7413 43.8085 30.8769C44.6658 29.431 45.1387 27.5394 45.1387 25.0694C45.1387 14.5361 36.5992 6 26.0694 6C15.5395 6 7 14.5361 7 25.0694C7 27.5428 7.47291 29.431 8.33026 30.8769C9.41217 32.7005 9.72177 34.8881 9.33051 36.9737C9.27608 37.2697 9.23185 37.4976 9.20123 37.6201C8.35408 41.3455 7.90499 43.1623 8.20778 44.2782C8.46975 45.2377 9.09916 45.9725 9.98374 46.3468C10.3954 46.5203 10.8377 46.6087 11.2936 46.6087C11.9332 46.6087 12.5966 46.4352 13.2226 46.095C14.1412 45.5949 15.9206 43.1487 17.6863 40.461C17.9449 42.754 18.2919 44.7205 18.724 45.418C19.2616 46.2923 20.0985 46.8435 21.0783 46.9694C21.2144 46.9864 21.3505 46.9966 21.4866 46.9966C22.4052 46.9966 23.3238 46.6121 24.0519 45.9045C24.62 45.3533 25.3345 43.6182 26.0694 41.3966C26.8042 43.6148 27.5153 45.3533 28.0869 45.9045C28.8184 46.6087 29.7335 46.9966 30.6521 46.9966C30.7882 46.9966 30.9243 46.9898 31.0604 46.9694C32.0402 46.8469 32.8772 46.2957 33.4147 45.418C33.8468 44.7171 34.1938 42.754 34.4524 40.4576C36.2182 43.1453 37.9975 45.5915 38.9161 46.0916C39.5387 46.4318 40.2021 46.6053 40.8452 46.6053C41.3011 46.6053 41.7433 46.5203 42.155 46.3434C43.0362 45.9657 43.669 45.2309 43.931 44.2748C44.2372 43.1589 43.7234 40.9271 42.8763 37.205C42.8695 37.1744 42.8593 37.137 42.8525 37.0928L42.8491 37.0962Z" fill="#F43BA6"/>
<path d="M23.698 32.163C25.0283 33.6055 27.4779 33.5715 28.4407 32.1017" stroke="black" stroke-width="1.36088" stroke-miterlimit="10" stroke-linecap="round"/>
<path d="M34.5579 34.6262C35.8131 34.6262 36.8306 34.0565 36.8306 33.3537C36.8306 32.651 35.8131 32.0813 34.5579 32.0813C33.3027 32.0813 32.2852 32.651 32.2852 33.3537C32.2852 34.0565 33.3027 34.6262 34.5579 34.6262Z" fill="#FF75C3"/>
<path d="M17.5809 34.6262C18.836 34.6262 19.8535 34.0565 19.8535 33.3537C19.8535 32.651 18.836 32.0813 17.5809 32.0813C16.3257 32.0813 15.3082 32.651 15.3082 33.3537C15.3082 34.0565 16.3257 34.6262 17.5809 34.6262Z" fill="#FF75C3"/>
<path d="M16.8596 31.2988C20.2192 31.2988 22.9428 28.5753 22.9428 25.2157C22.9428 21.856 20.2192 19.1325 16.8596 19.1325C13.5 19.1325 10.7765 21.856 10.7765 25.2157C10.7765 28.5753 13.5 31.2988 16.8596 31.2988Z" fill="white"/>
<path d="M16.8596 29.9583C19.4789 29.9583 21.6023 27.835 21.6023 25.2157C21.6023 22.5964 19.4789 20.473 16.8596 20.473C14.2403 20.473 12.1169 22.5964 12.1169 25.2157C12.1169 27.835 14.2403 29.9583 16.8596 29.9583Z" fill="black"/>
<path d="M13.056 25.5049C13.8 25.5049 14.4032 24.9017 14.4032 24.1576C14.4032 23.4135 13.8 22.8103 13.056 22.8103C12.3119 22.8103 11.7087 23.4135 11.7087 24.1576C11.7087 24.9017 12.3119 25.5049 13.056 25.5049Z" fill="white"/>
<path d="M15.6212 26.91C16.1304 26.91 16.5432 26.4972 16.5432 25.988C16.5432 25.4788 16.1304 25.066 15.6212 25.066C15.112 25.066 14.6992 25.4788 14.6992 25.988C14.6992 26.4972 15.112 26.91 15.6212 26.91Z" fill="white"/>
<path d="M35.2792 31.2988C38.6388 31.2988 41.3623 28.5753 41.3623 25.2157C41.3623 21.856 38.6388 19.1325 35.2792 19.1325C31.9195 19.1325 29.196 21.856 29.196 25.2157C29.196 28.5753 31.9195 31.2988 35.2792 31.2988Z" fill="white"/>
<path d="M35.2792 29.9583C37.8985 29.9583 40.0219 27.835 40.0219 25.2157C40.0219 22.5964 37.8985 20.473 35.2792 20.473C32.6599 20.473 30.5365 22.5964 30.5365 25.2157C30.5365 27.835 32.6599 29.9583 35.2792 29.9583Z" fill="black"/>
<path d="M31.4755 25.5049C32.2196 25.5049 32.8228 24.9017 32.8228 24.1576C32.8228 23.4135 32.2196 22.8103 31.4755 22.8103C30.7314 22.8103 30.1282 23.4135 30.1282 24.1576C30.1282 24.9017 30.7314 25.5049 31.4755 25.5049Z" fill="white"/>
<path d="M34.0374 26.91C34.5466 26.91 34.9594 26.4972 34.9594 25.988C34.9594 25.4788 34.5466 25.066 34.0374 25.066C33.5281 25.066 33.1154 25.4788 33.1154 25.988C33.1154 26.4972 33.5281 26.91 34.0374 26.91Z" fill="white"/>
</g>
<defs>
<clipPath id="clip0_189_2896">
<rect width="38.2667" height="41" fill="white" transform="translate(7 6)"/>
</clipPath>
</defs>
</svg>
